HIERARCHY
ROOT m_avg_root
{
	OFFSET 0.000000 0.000000 0.000000
	CHANNELS 6 Xposition Yposition Zposition Xrotation Yrotation Zrotation
	JOINT m_avg_Pelvis
	{
		OFFSET -0.002174 0.972724 0.028584
		CHANNELS 6 Xposition Yposition Zposition Xrotation Yrotation Zrotation
		JOINT m_avg_L_Hip
		{
			OFFSET 0.058581 -0.082280 -0.017664
			CHANNELS 6 Xposition Yposition Zposition Xrotation Yrotation Zrotation
			JOINT m_avg_L_Knee
			{
				OFFSET 0.043451 -0.386469 0.008037
				CHANNELS 6 Xposition Yposition Zposition Xrotation Yrotation Zrotation
				JOINT m_avg_L_Ankle
				{
					OFFSET -0.014790 -0.426874 -0.037428
					CHANNELS 6 Xposition Yposition Zposition Xrotation Yrotation Zrotation
					JOINT m_avg_L_Foot
					{
						OFFSET 0.041054 -0.060286 0.122042
						CHANNELS 6 Xposition Yposition Zposition Xrotation Yrotation Zrotation
						End Site
						{
							OFFSET 0.000000 0.142177 0.000000
						}
					}
				}
			}
		}
		JOINT m_avg_R_Hip
		{
			OFFSET -0.060310 -0.090513 -0.013543
			CHANNELS 6 Xposition Yposition Zposition Xrotation Yrotation Zrotation
			JOINT m_avg_R_Knee
			{
				OFFSET -0.043257 -0.383688 -0.004843
				CHANNELS 6 Xposition Yposition Zposition Xrotation Yrotation Zrotation
				JOINT m_avg_R_Ankle
				{
					OFFSET 0.019056 -0.420046 -0.034562
					CHANNELS 6 Xposition Yposition Zposition Xrotation Yrotation Zrotation
					JOINT m_avg_R_Foot
					{
						OFFSET -0.034840 -0.062106 0.130323
						CHANNELS 6 Xposition Yposition Zposition Xrotation Yrotation Zrotation
						End Site
						{
							OFFSET 0.000000 0.148510 0.000000
						}
					}
				}
			}
		}
		JOINT m_avg_Spine1
		{
			OFFSET 0.004439 0.124404 -0.038385
			CHANNELS 6 Xposition Yposition Zposition Xrotation Yrotation Zrotation
			JOINT m_avg_Spine2
			{
				OFFSET 0.004488 0.137956 0.026820
				CHANNELS 6 Xposition Yposition Zposition Xrotation Yrotation Zrotation
				JOINT m_avg_Spine3
				{
					OFFSET -0.002265 0.056032 0.002855
					CHANNELS 6 Xposition Yposition Zposition Xrotation Yrotation Zrotation
					JOINT m_avg_Neck
					{
						OFFSET -0.013390 0.211635 -0.033468
						CHANNELS 6 Xposition Yposition Zposition Xrotation Yrotation Zrotation
						JOINT m_avg_Head
						{
							OFFSET 0.010113 0.088937 0.050410
							CHANNELS 6 Xposition Yposition Zposition Xrotation Yrotation Zrotation
							End Site
							{
								OFFSET 0.000000 0.102729 0.000000
							}
						}
					}
					JOINT m_avg_L_Collar
					{
						OFFSET 0.071702 0.114000 -0.018898
						CHANNELS 6 Xposition Yposition Zposition Xrotation Yrotation Zrotation
						JOINT m_avg_L_Shoulder
						{
							OFFSET 0.122921 0.045205 -0.019046
							CHANNELS 6 Xposition Yposition Zposition Xrotation Yrotation Zrotation
							JOINT m_avg_L_Elbow
							{
								OFFSET 0.255332 -0.015649 -0.022946
								CHANNELS 6 Xposition Yposition Zposition Xrotation Yrotation Zrotation
								JOINT m_avg_L_Wrist
								{
									OFFSET 0.265709 0.012698 -0.007375
									CHANNELS 6 Xposition Yposition Zposition Xrotation Yrotation Zrotation
									JOINT m_avg_L_Hand
									{
										OFFSET 0.086691 -0.010636 -0.015594
										CHANNELS 6 Xposition Yposition Zposition Xrotation Yrotation Zrotation
										End Site
										{
											OFFSET 0.000000 0.088722 0.000000
										}
									}
								}
							}
						}
					}
					JOINT m_avg_R_Collar
					{
						OFFSET -0.082954 0.112472 -0.023707
						CHANNELS 6 Xposition Yposition Zposition Xrotation Yrotation Zrotation
						JOINT m_avg_R_Shoulder
						{
							OFFSET -0.113228 0.046853 -0.008472
							CHANNELS 6 Xposition Yposition Zposition Xrotation Yrotation Zrotation
							JOINT m_avg_R_Elbow
							{
								OFFSET -0.260127 -0.014369 -0.031269
								CHANNELS 6 Xposition Yposition Zposition Xrotation Yrotation Zrotation
								JOINT m_avg_R_Wrist
								{
									OFFSET -0.269108 0.006794 -0.006027
									CHANNELS 6 Xposition Yposition Zposition Xrotation Yrotation Zrotation
									JOINT m_avg_R_Hand
									{
										OFFSET -0.088754 -0.008652 -0.010107
										CHANNELS 6 Xposition Yposition Zposition Xrotation Yrotation Zrotation
										End Site
										{
											OFFSET 0.000000 0.089745 0.000000
										}
									}
								}
							}
						}
					}
				}
			}
		}
	}
}
MOTION
Frames: 4
Frame Time: 0.041667
-0.195672 -0.090931 2.579474 -0.000000 0.000000 -0.000000 -0.197846 0.881792 2.608058 -175.463544 -4.074341 0.348427 0.058581 -0.082280 -0.017664 -10.761603 -3.278548 5.278400 0.043451 -0.386469 0.008037 40.251121 -8.605070 -4.824296 -0.014790 -0.426874 -0.037428 -6.068388 7.594042 -7.751054 0.041054 -0.060286 0.122043 -15.260716 2.643859 11.208350 -0.060310 -0.090513 -0.013542 -16.952567 -0.154911 2.925675 -0.043257 -0.383688 -0.004843 38.939714 6.052205 10.558040 0.019056 -0.420046 -0.034562 -4.131173 -7.632944 11.997956 -0.034840 -0.062105 0.130324 -10.049201 7.407281 -15.111290 0.004439 0.124404 -0.038385 7.982248 0.688918 -3.594907 0.004488 0.137956 0.026821 -3.806838 -1.492681 3.823216 -0.002265 0.056032 0.002854 2.992052 -1.198742 7.511716 -0.013390 0.211636 -0.033468 -10.340398 3.296897 6.261812 0.010113 0.088937 0.050410 12.260796 -2.635042 1.793725 0.071703 0.114000 -0.018898 -4.492698 -8.781553 -3.885616 0.122921 0.045205 -0.019046 -5.481036 -19.059419 -32.969002 0.255332 -0.015649 -0.022947 56.809146 -70.778908 69.702736 0.265709 0.012698 -0.007375 -1.449628 -7.246192 9.804595 0.086691 -0.010636 -0.015595 -6.112515 -3.861415 -10.887822 -0.082954 0.112473 -0.023707 -7.726144 6.324352 15.282116 -0.113228 0.046853 -0.008473 -10.171477 15.269173 54.254863 -0.260128 -0.014369 -0.031269 46.973588 69.080929 -73.074432 -0.269109 0.006794 -0.006027 -4.210221 6.443491 -8.233475 -0.088754 -0.008652 -0.010107 -5.320833 5.500989 12.028983 
-0.195672 -0.090931 2.579474 -0.000000 0.000000 -0.000000 -0.197846 0.881792 2.608058 -175.463544 -4.074341 0.348427 0.058581 -0.082280 -0.017664 -10.859693 -3.068968 4.499061 0.043452 -0.386469 0.008037 40.861655 -8.451469 -4.974845 -0.014790 -0.426875 -0.037428 -6.252150 7.575400 -7.446437 0.041054 -0.060286 0.122043 -15.072351 2.500445 10.923459 -0.060310 -0.090513 -0.013542 -16.664109 0.512812 2.378644 -0.043257 -0.383688 -0.004843 38.966922 6.815470 9.900445 0.019056 -0.420045 -0.034561 -4.637243 -7.615667 11.908119 -0.034840 -0.062105 0.130324 -10.335332 7.590131 -15.510275 0.004439 0.124403 -0.038385 7.852316 0.617275 -3.088549 0.004488 0.137956 0.026820 -4.165696 -1.596882 4.045055 -0.002265 0.056032 0.002855 1.815924 -1.076226 7.163060 -0.013390 0.211635 -0.033467 -9.897338 2.567274 5.561955 0.010113 0.088937 0.050410 12.433236 -3.021418 1.372808 0.071703 0.113999 -0.018898 -4.220865 -9.009655 -4.043816 0.122921 0.045205 -0.019046 -6.098414 -18.563372 -34.407085 0.255332 -0.015649 -0.022946 53.997150 -70.290317 67.484530 0.265709 0.012698 -0.007375 -1.681335 -7.127737 9.496051 0.086691 -0.010636 -0.015594 -6.042951 -4.014496 -11.060998 -0.082954 0.112472 -0.023707 -8.752688 5.908791 15.350990 -0.113228 0.046853 -0.008471 -12.197360 14.615128 52.502578 -0.260127 -0.014369 -0.031269 49.988153 69.723555 -78.689885 -0.269109 0.006793 -0.006027 -4.303540 6.400586 -8.374760 -0.088754 -0.008651 -0.010107 -5.373845 5.479841 12.253179 
-0.195672 -0.090931 2.579474 -0.000000 0.000000 -0.000000 -0.197846 0.881792 2.608058 -175.463544 -4.074341 0.348427 0.058581 -0.082280 -0.017664 -10.963353 -2.686771 3.946631 0.043451 -0.386469 0.008037 41.394488 -8.275862 -5.244577 -0.014790 -0.426875 -0.037429 -6.331450 7.482657 -7.203901 0.041054 -0.060286 0.122043 -14.916184 2.419520 10.656052 -0.060310 -0.090513 -0.013542 -16.290667 1.364336 1.860751 -0.043257 -0.383688 -0.004843 39.022817 7.698149 8.962912 0.019056 -0.420045 -0.034562 -5.051029 -7.560222 11.839486 -0.034840 -0.062106 0.130324 -10.627076 7.770056 -15.950910 0.004439 0.124404 -0.038385 7.664999 0.454639 -2.528249 0.004488 0.137956 0.026820 -4.389541 -1.771706 4.123958 -0.002265 0.056032 0.002855 1.008440 -1.058287 6.571270 -0.013390 0.211636 -0.033467 -9.668899 1.845336 4.789184 0.010113 0.088937 0.050410 12.448787 -3.224860 0.897284 0.071702 0.114000 -0.018898 -3.977219 -9.347677 -4.329505 0.122921 0.045205 -0.019047 -6.759098 -18.318859 -35.880630 0.255332 -0.015649 -0.022947 51.661133 -69.769433 65.655180 0.265709 0.012698 -0.007375 -1.968996 -7.019913 9.233810 0.086691 -0.010636 -0.015594 -5.890403 -4.144515 -11.179993 -0.082954 0.112472 -0.023707 -9.447503 5.597411 15.176306 -0.113228 0.046853 -0.008471 -13.460125 14.254314 50.860085 -0.260128 -0.014369 -0.031269 53.064938 70.181430 -83.328431 -0.269109 0.006794 -0.006027 -4.332602 6.357951 -8.445015 -0.088753 -0.008652 -0.010107 -5.409205 5.462679 12.400212 
-0.195672 -0.090931 2.579474 -0.000000 0.000000 -0.000000 -0.197846 0.881792 2.608058 -175.463544 -4.074341 0.348427 0.058581 -0.082280 -0.017664 -11.129758 -2.177383 3.573562 0.043452 -0.386469 0.008037 41.860402 -8.091888 -5.635400 -0.014791 -0.426875 -0.037428 -6.264667 7.308615 -7.061763 0.041054 -0.060286 0.122043 -14.766936 2.386136 10.432710 -0.060310 -0.090513 -0.013542 -15.786080 2.405427 1.429054 -0.043257 -0.383688 -0.004842 39.047949 8.683794 7.732493 0.019056 -0.420046 -0.034562 -5.406303 -7.449476 11.788116 -0.034840 -0.062105 0.130324 -10.885187 7.945633 -16.422147 0.004439 0.124404 -0.038385 7.452276 0.232589 -1.951171 0.004488 0.137956 0.026820 -4.479296 -1.995007 4.043151 -0.002265 0.056032 0.002855 0.616616 -1.122419 5.769531 -0.013390 0.211636 -0.033467 -9.655219 1.130897 4.007216 0.010113 0.088937 0.050409 12.339500 -3.262536 0.395860 0.071703 0.114000 -0.018898 -3.770120 -9.800241 -4.668970 0.122921 0.045205 -0.019046 -7.400175 -18.342494 -37.378777 0.255332 -0.015649 -0.022946 49.924441 -69.289865 64.274320 0.265710 0.012698 -0.007375 -2.306526 -6.948089 9.039291 0.086691 -0.010636 -0.015595 -5.662328 -4.246531 -11.236002 -0.082954 0.112472 -0.023707 -9.855107 5.461203 14.698589 -0.113228 0.046853 -0.008472 -14.044662 14.207072 49.395918 -0.260127 -0.014369 -0.031269 56.397541 70.494376 -87.226686 -0.269109 0.006794 -0.006027 -4.327116 6.346488 -8.467771 -0.088754 -0.008651 -0.010107 -5.418798 5.445218 12.465320 
